<svg width="16" height="17" viewBox="0 0 16 17" fill="none" xmlns="http://www.w3.org/2000/svg">
<path fill-rule="evenodd" clip-rule="evenodd" d="M2.96751 11.0599C3.32097 11.0599 3.60751 11.3465 3.60751 11.6999V12.9799C3.60751 13.1497 3.67493 13.3124 3.79498 13.4325C3.91499 13.5525 4.07777 13.6199 4.24751 13.6199H11.9275C12.0972 13.6199 12.26 13.5525 12.38 13.4325C12.5001 13.3124 12.5675 13.1497 12.5675 12.9799V11.6999C12.5675 11.3465 12.854 11.0599 13.2075 11.0599C13.561 11.0599 13.8475 11.3465 13.8475 11.6999V12.9799C13.8475 13.4891 13.6453 13.9775 13.2851 14.3376C12.9251 14.6976 12.4367 14.8999 11.9275 14.8999H4.24751C3.73831 14.8999 3.24993 14.6977 2.88986 14.3376C2.52981 13.9775 2.32751 13.4891 2.32751 12.9799V11.6999C2.32751 11.3465 2.61405 11.0599 2.96751 11.0599Z" fill="#00D390"/>
<path fill-rule="evenodd" clip-rule="evenodd" d="M4.43501 7.40743C4.68495 7.15749 5.09017 7.15749 5.34011 7.40743L8.08755 10.1549L10.835 7.40743C11.0849 7.15749 11.4902 7.15749 11.7401 7.40743C11.9901 7.65735 11.9901 8.06259 11.7401 8.31251L8.54009 11.5125C8.29017 11.7624 7.88492 11.7624 7.635 11.5125L4.43501 8.31251C4.18508 8.06259 4.18508 7.65735 4.43501 7.40743Z" fill="#00D390"/>
<path fill-rule="evenodd" clip-rule="evenodd" d="M8.08751 2.73999C8.44098 2.73999 8.72751 3.02653 8.72751 3.37999V11.06C8.72751 11.4135 8.44098 11.7 8.08751 11.7C7.73404 11.7 7.44751 11.4135 7.44751 11.06V3.37999C7.44751 3.02653 7.73404 2.73999 8.08751 2.73999Z" fill="#00D390"/>
</svg>
